<?xml version="1.0" encoding="UTF-8" standalone="no"?>
<!-- Created with Inkscape (http://www.inkscape.org/) -->

<svg
   width="512"
   height="512"
   viewBox="0 0 135.46666 135.46666"
   version="1.1"
   id="svg840"
   inkscape:version="1.1 (c68e22c387, 2021-05-23)"
   sodipodi:docname="appIcon.svg"
   inkscape:export-filename="C:\Users\funvill\Documents\git\cultural-archiver\src\frontend\public\assets\appIcon.png"
   inkscape:export-xdpi="101.63496"
   inkscape:export-ydpi="101.63496"
   xmlns:inkscape="http://www.inkscape.org/namespaces/inkscape"
   xmlns:sodipodi="http://sodipodi.sourceforge.net/DTD/sodipodi-0.dtd"
   xmlns="http://www.w3.org/2000/svg"
   xmlns:svg="http://www.w3.org/2000/svg">
  <sodipodi:namedview
     id="namedview842"
     pagecolor="#ffffff"
     bordercolor="#666666"
     borderopacity="1.0"
     inkscape:pageshadow="2"
     inkscape:pageopacity="0.0"
     inkscape:pagecheckerboard="0"
     inkscape:document-units="mm"
     showgrid="false"
     width="512mm"
     units="px"
     inkscape:zoom="0.69397447"
     inkscape:cx="352.31844"
     inkscape:cy="561.25984"
     inkscape:window-width="2560"
     inkscape:window-height="1369"
     inkscape:window-x="-8"
     inkscape:window-y="-8"
     inkscape:window-maximized="1"
     inkscape:current-layer="layer1" />
  <defs
     id="defs837" />
  <g
     inkscape:label="Layer 1"
     inkscape:groupmode="layer"
     id="layer1">
    <g
       id="g972"
       transform="matrix(1.9002625,0,0,1.9002625,-6.8891785,-1.8177356)">
      <circle
         style="fill:#ffffff;stroke:#000000;stroke-width:2.64583;stroke-linejoin:round;stop-color:#000000"
         id="path30-0"
         cx="39.269581"
         cy="36.600769"
         r="32.345058" />
      <g
         id="g2443"
         transform="matrix(0.26458333,0,0,0.26458333,5.4029104,2.7341036)">
        <path
           style="fill:#ff0000;stroke-width:2"
           d="m 131.07484,93.901571 c 5.29136,-1.11094 9.72076,-5.12338 11.3432,-10.27541 0.63241,-2.00819 0.74861,-5.65058 0.249,-7.80498 -1.26811,-5.46835 -5.78944,-10.02544 -11.21572,-11.30442 -6.73416,-1.58726 -13.74441,1.68594 -16.83486,7.86048 -1.3675,2.73218 -1.7179,4.4703 -1.55909,7.73375 0.0956,1.9648 0.29524,3.0441 0.81266,4.39386 2.66699,6.95713 9.93016,10.92405 17.20481,9.39672 z"
           id="path2336" />
        <path
           style="fill:#ff0000;stroke-width:2"
           d="m 137.14787,147.17167 c -0.0829,-0.5366 -1.1558,-11.21966 -2.38412,-23.74014 -1.22831,-12.52048 -2.28257,-22.99866 -2.3428,-23.28484 -0.10415,-0.494939 -0.31943,-0.520319 -4.41353,-0.520319 -2.36723,0 -4.30409,0 -4.30413,0 -5e-5,0 -0.64539,6.380559 -1.4341,14.179019 -2.80731,27.75784 -3.25756,32.14398 -3.41176,33.23619 l -0.15611,1.10571 H 128 h 9.29868 z"
           id="path2334" />
        <path
           style="fill:#000000;stroke-width:2"
           d="m 113.7517,141.62489 c 0.36035,-3.49569 1.46997,-14.4925 2.46582,-24.43734 0.99585,-9.94484 1.86288,-18.443109 1.92674,-18.885059 0.10894,-0.75398 -0.005,-0.88235 -1.84449,-2.08133 -7.52481,-4.90418 -10.88523,-14.81392 -7.97636,-23.52197 2.20795,-6.60978 7.81631,-11.84609 14.66628,-13.69335 2.36473,-0.6377 7.83101,-0.64855 10.14647,-0.0201 4.69317,1.27372 9.14574,4.32786 11.83791,8.11992 2.61556,3.68419 3.8084,7.34996 3.85191,11.83755 0.016,1.64555 -0.12392,3.69436 -0.31082,4.5529 -1.10013,5.05341 -4.26276,9.74706 -8.45225,12.54393 -1.01943,0.68056 -1.88937,1.25542 -1.93319,1.27745 -0.0438,0.022 0.39251,4.823769 0.96963,10.670529 0.57712,5.84677 1.6359,16.77689 2.35284,24.28919 0.71695,7.51228 1.39282,14.12323 1.50195,14.691 l 0.19841,1.0323 2.88859,-3.89412 c 6.49338,-8.75377 12.63367,-17.9283 20.10557,-30.0408 7.91586,-12.83221 9.78714,-18.045459 10.09868,-28.134349 0.23565,-7.63111 -0.49633,-12.05882 -3.11413,-18.83716 -5.67416,-14.69227 -17.83128,-25.327492 -33.49095,-29.298364 -9.17232,-2.32585 -18.15447,-1.914795 -27.41711,1.254696 -6.57992,2.251525 -12.475811,5.799448 -17.371881,10.453738 -9.04481,8.59816 -14.01608,19.02095 -15.02718,31.50604 -0.53457,6.60094 0.89364,15.10041 3.5816,21.314659 1.7462,4.037 7.26667,13.19636 15.82511,26.25645 4.883361,7.45196 13.557881,19.70723 13.786991,19.47812 0.0433,-0.0433 0.37351,-2.9388 0.73386,-6.4345 z"
           id="path2332" />
        <path
           style="fill:#ff0000;stroke-width:2"
           d="m 138.53284,161.48079 c -0.004,-0.25041 -0.17742,-2.09433 -0.38485,-4.09761 -0.20743,-2.00328 -0.37957,-3.673 -0.38255,-3.71049 -0.003,-0.0375 -4.42497,-0.0375 -9.82666,0 l -9.82127,0.0682 -0.29891,2.9919 c -0.16439,1.64556 -0.31074,3.48948 -0.3252,4.09762 l -0.0263,1.1057 h 10.53673 c 9.86445,0 10.53622,-0.029 10.52901,-0.45529 z"
           id="path2330" />
        <path
           style="fill:#ff0000;stroke-width:2"
           d="m 134.57435,175.07702 c 2.46937,-0.73333 3.9776,-2.85933 4.19624,-5.91508 l 0.1265,-1.76813 -10.89709,0.0679 -10.89709,0.0679 0.0703,1.17075 c 0.16437,2.73752 1.37419,4.91899 3.27242,5.9006 1.61769,0.83654 11.76362,1.17838 14.12873,0.47602 z"
           id="path2328" />
        <path
           style="fill:#ff0000;stroke-width:2"
           d="m 136.23635,211.36761 c 2.87838,-4.5102 5.1985,-9.15611 6.17141,-12.35789 0.62978,-2.07254 0.7133,-2.77478 0.72718,-6.11389 0.0148,-3.56093 -0.025,-3.86873 -0.70924,-5.4906 -0.84345,-1.99918 -2.90092,-4.44088 -4.37629,-5.19356 -1.647,-0.84024 -3.08485,-0.98018 -10.89294,-1.06022 l -7.41472,-0.076 -1.37586,0.75365 c -2.42537,1.32854 -4.36863,3.89824 -5.11476,6.7636 -0.52133,2.00206 -0.51713,5.85597 0.009,8.4117 0.89482,4.34524 2.8267,8.35475 8.04869,16.70469 1.74503,2.79028 3.9652,6.44809 4.93373,8.12847 l 1.76096,3.05524 2.91257,-4.8764 c 1.60192,-2.68202 3.99596,-6.57398 5.32009,-8.6488 z"
           id="path2326" />
      </g>
      <path
         style="fill:none;stroke:#000000;stroke-width:0.529167"
         d="m 38.857183,64.324653 c -0.218228,-0.18816 -3.777228,-6.08829 -4.183348,-6.93518 -0.715118,-1.49125 -0.958691,-2.55356 -0.907513,-3.95805 0.02646,-0.72603 0.0635,-0.95311 0.237173,-1.45365 0.308184,-0.88823 0.92284,-1.73999 1.591604,-2.20557 l 0.158485,-0.11033 -0.280305,-0.40014 c -0.578305,-0.82557 -0.677368,-1.65181 -0.483984,-4.03674 l 0.08773,-1.08194 -0.824142,-1.08638 c -3.088696,-4.07148 -6.747399,-9.72901 -8.044667,-12.43965 -0.757605,-1.58301 -1.063858,-2.75647 -1.208101,-4.62908 -0.192151,-2.49453 0.41578,-5.31967 1.632977,-7.58866 2.215002,-4.12902 6.171906,-6.83916 10.868591,-7.44405 0.930571,-0.11984 2.88976,-0.10087 3.785957,0.0367 1.680342,0.25789 3.173198,0.73409 4.630555,1.4771 2.44789,1.24801 4.552844,3.28899 5.897874,5.71862 1.190456,2.15041 1.756749,4.37399 1.758151,6.90347 0.0016,2.87955 -0.475834,4.46067 -2.295953,7.60355 -1.892345,3.2676 -5.200214,8.15019 -7.397443,10.91902 l -0.375476,0.47315 0.07926,1.1789 c 0.177845,2.64538 0.0635,3.42951 -0.612343,4.19926 l -0.207511,0.23634 0.240774,0.14881 c 0.711057,0.43946 1.516994,1.73571 1.721959,2.76958 0.336362,1.69664 -0.125884,3.66821 -1.360379,5.8023 -0.834044,1.44181 -3.52279,5.79963 -3.641905,5.90265 -0.08585,0.0743 -0.252257,0.12046 -0.43379,0.12046 -0.181369,0 -0.348181,-0.0463 -0.434224,-0.12046 z"
         id="path136-1" />
    </g>
  </g>
</svg>
