<?xml version="1.0" encoding="UTF-8" standalone="no"?>
<svg
   viewBox="0 0 256 256"
   role="img"
   aria-labelledby="title desc"
   version="1.1"
   id="svg20"
   sodipodi:docname="logo-pin-brush.svg"
   inkscape:version="1.1 (c68e22c387, 2021-05-23)"
   xmlns:inkscape="http://www.inkscape.org/namespaces/inkscape"
   xmlns:sodipodi="http://sodipodi.sourceforge.net/DTD/sodipodi-0.dtd"
   xmlns="http://www.w3.org/2000/svg"
   xmlns:svg="http://www.w3.org/2000/svg">
  <defs
     id="defs24" />
  <sodipodi:namedview
     id="namedview22"
     pagecolor="#ffffff"
     bordercolor="#666666"
     borderopacity="1.0"
     inkscape:pageshadow="2"
     inkscape:pageopacity="0.0"
     inkscape:pagecheckerboard="0"
     showgrid="false"
     inkscape:zoom="0.76074219"
     inkscape:cx="-120.27728"
     inkscape:cy="184.68806"
     inkscape:window-width="1271"
     inkscape:window-height="1031"
     inkscape:window-x="2729"
     inkscape:window-y="49"
     inkscape:window-maximized="0"
     inkscape:current-layer="svg20" />
  <title
     id="title2">Public Art Registry — Map Pin + Brush (Line Art)</title>
  <desc
     id="desc4">Monoline logo: a map pin outline with an inner circle and a centered paint brush, matching the earlier black/white image.</desc>
  <circle
     style="fill:#ffffff;stroke:#000000;stroke-width:10;stroke-linejoin:round;stop-color:#000000"
     id="path30"
     cx="-185.52234"
     cy="148.20345"
     r="122.24904" />
  <circle
     style="fill:#ffffff;stroke:#000000;stroke-width:10;stroke-linejoin:round;stop-color:#000000"
     id="path30-0"
     cx="128"
     cy="128"
     r="122.24904" />
  <path
     style="fill:#ff0000;stroke:#000000;stroke-width:1px;stroke-linecap:butt;stroke-linejoin:miter;stroke-opacity:1"
     d="m -193.57369,198.81193 18.23877,0.98588 8.21566,11.50193 -11.66624,30.06932 -6.90115,8.21566 -16.1027,-29.57638 0.16431,-12.32349 z"
     id="path1075" />
  <path
     style="fill:#00ffff;stroke:#000000;stroke-width:1px;stroke-linecap:butt;stroke-linejoin:miter;stroke-opacity:1"
     d="m -199.19434,191.23071 7.43597,-74.59204 12.78057,0.46474 7.20359,74.35968 -5.11223,6.2741 -17.89279,0.23237 z"
     id="path1110" />
  <path
     style="fill:#00ffff;stroke:#000000;stroke-width:1px;stroke-linecap:butt;stroke-linejoin:miter;stroke-opacity:1"
     d="m -195.47635,85.500549 12.78056,-3.71798 12.08345,7.43597 2.78849,17.660421 -11.6187,9.99208 -15.33668,-0.9295 -8.59784,-14.40718 z"
     id="path1145" />
  <path
     style="fill:#ff0000;stroke:#000000;stroke-width:1px;stroke-linecap:butt;stroke-linejoin:miter;stroke-opacity:1"
     d="m -171.30946,171.7113 34.62372,-49.72803 1.16187,-32.067611 -23.23739,-30.44099 -29.5115,-6.97122 -31.13811,12.31582 -16.49855,29.27912 2.55611,25.793511 12.5482,25.56114 17.66041,25.32876 4.64748,3.71799 5.80935,-57.62875 -10.6892,-14.40719 3.95036,-12.780571 6.50647,-5.57697 13.01294,-2.32374 6.04173,4.18273 5.3446,9.52733 -2.55612,14.407191 -6.50647,7.20359 -0.92949,5.11223 z"
     id="path1637" />
  <path
     style="fill:#000000;stroke-width:2"
     d="m -187.08143,252.98128 c -0.8248,-0.71114 -14.27614,-23.01086 -15.81108,-26.21171 -2.70281,-5.63621 -3.6234,-9.65125 -3.42997,-14.95954 0.1,-2.74406 0.24001,-3.60231 0.8964,-5.49412 1.16479,-3.35709 3.4879,-6.57634 6.01551,-8.33599 l 0.599,-0.41701 -1.05942,-1.51236 c -2.18572,-3.12023 -2.56013,-6.24304 -1.82923,-15.25693 l 0.33157,-4.08924 -3.11487,-4.10599 c -11.67381,-15.38827 -25.50198,-36.77108 -30.40503,-47.01599 -2.8634,-5.98307 -4.02088,-10.41819 -4.56606,-17.49575 -0.72624,-9.428141 1.57146,-20.105851 6.17189,-28.681581 8.37165,-15.60573 23.32688,-25.84876 41.07813,-28.13496 3.51712,-0.45297 10.92193,-0.38125 14.30913,0.13859 6.3509,0.97469 11.99319,2.77451 17.50131,5.58273 9.25187,4.71688 17.2076,12.43081 22.29118,21.61368 4.49936,8.12753 6.63968,16.53162 6.64498,26.091881 0.006,10.88333 -1.79843,16.85923 -8.67762,28.73783 -7.15217,12.34997 -19.65435,30.80385 -27.95884,41.26871 l -1.41912,1.78829 0.29955,4.45569 c 0.67217,9.99828 0.24001,12.96193 -2.31437,15.8712 l -0.78429,0.89326 0.91001,0.56242 c 2.68746,1.66095 5.73352,6.56019 6.50819,10.46772 1.27129,6.41249 -0.47578,13.86411 -5.14159,21.92995 -3.15229,5.44938 -13.31448,21.91986 -13.76468,22.30922 -0.32448,0.28064 -0.95341,0.45529 -1.63952,0.45529 -0.68549,0 -1.31596,-0.17491 -1.64116,-0.45529 z m 9.81045,-21.39864 c 2.87838,-4.5102 5.1985,-9.15611 6.17141,-12.35789 0.62978,-2.07254 0.7133,-2.77478 0.72718,-6.11389 0.0148,-3.56093 -0.025,-3.86873 -0.70924,-5.4906 -0.84345,-1.99918 -2.90092,-4.44088 -4.37629,-5.19356 -1.647,-0.84024 -3.08485,-0.98018 -10.89294,-1.06022 l -7.41472,-0.076 -1.37586,0.75365 c -2.42537,1.32854 -4.36863,3.89824 -5.11476,6.7636 -0.52133,2.00206 -0.51713,5.85597 0.009,8.4117 0.89482,4.34524 2.8267,8.35475 8.04869,16.70469 1.74503,2.79028 3.9652,6.44809 4.93373,8.12847 l 1.76096,3.05524 2.91257,-4.8764 c 1.60192,-2.68202 3.99596,-6.57398 5.32009,-8.6488 z m -1.62482,-36.29059 c 2.46937,-0.73333 3.9776,-2.85933 4.19624,-5.91508 l 0.1265,-1.76813 -10.89709,0.0679 -10.89709,0.0679 0.0703,1.17075 c 0.16437,2.73752 1.37419,4.91899 3.27242,5.9006 1.61769,0.83654 11.76362,1.17838 14.12873,0.47602 z m 3.98455,-13.59622 c -0.004,-0.25041 -0.17742,-2.09433 -0.38485,-4.09761 -0.20743,-2.00328 -0.37957,-3.673 -0.38255,-3.71049 -0.003,-0.0375 -4.42497,-0.0375 -9.82666,0 l -9.82127,0.0682 -0.29891,2.9919 c -0.16439,1.64556 -0.31074,3.48948 -0.3252,4.09762 l -0.0263,1.1057 h 10.53673 c 9.86445,0 10.53622,-0.029 10.52901,-0.45529 z m -24.84025,-19.8559 c 0.36035,-3.49569 1.46997,-14.4925 2.46582,-24.43734 0.99585,-9.94484 1.86288,-18.44312 1.92674,-18.88507 0.10894,-0.75397 -0.005,-0.88234 -1.84449,-2.08132 -7.52481,-4.90419 -10.88523,-14.81392 -7.97636,-23.521971 2.20795,-6.60979 7.81631,-11.8461 14.66628,-13.69335 2.36473,-0.6377 7.83101,-0.64855 10.14647,-0.0201 4.69317,1.27372 9.14574,4.32786 11.83791,8.11992 2.61556,3.68419 3.8084,7.34996 3.85191,11.83755 0.016,1.645551 -0.12392,3.694351 -0.31082,4.552901 -1.10013,5.05341 -4.26276,9.74706 -8.45225,12.54393 -1.01943,0.68056 -1.88937,1.25541 -1.93319,1.27745 -0.0438,0.022 0.39251,4.82377 0.96963,10.67053 0.57712,5.84677 1.6359,16.77689 2.35284,24.28919 0.71695,7.51228 1.39282,14.12323 1.50195,14.691 l 0.19841,1.0323 2.88859,-3.89412 c 6.49338,-8.75377 12.63367,-17.9283 20.10557,-30.0408 7.91586,-12.83221 9.78714,-18.04547 10.09868,-28.13435 0.23565,-7.631121 -0.49633,-12.058821 -3.11413,-18.837161 -5.67416,-14.69227 -17.83128,-25.32749 -33.49095,-29.29837 -9.17232,-2.32585 -18.15447,-1.91479 -27.41711,1.2547 -6.57992,2.25152 -12.47581,5.79945 -17.37188,10.45374 -9.0448,8.59815 -14.01608,19.02095 -15.02717,31.506041 -0.53458,6.60093 0.89363,15.10041 3.5816,21.31466 1.74619,4.037 7.26666,13.19636 15.82511,26.25645 4.88335,7.45196 13.55787,19.70723 13.78698,19.47812 0.0433,-0.0433 0.37351,-2.9388 0.73386,-6.4345 z m 23.46281,5.54678 c -0.0829,-0.5366 -1.1558,-11.21966 -2.38412,-23.74014 -1.22831,-12.52048 -2.28257,-22.99866 -2.3428,-23.28484 -0.10415,-0.49495 -0.31943,-0.52033 -4.41353,-0.52033 -2.36723,0 -4.30409,0 -4.30413,0 -5e-5,0 -0.64539,6.38057 -1.4341,14.17903 -2.80731,27.75784 -3.25756,32.14398 -3.41176,33.23619 l -0.15611,1.10571 h 9.29868 9.29868 z m -6.02959,-53.2701 c 5.29136,-1.11094 9.72076,-5.12338 11.3432,-10.27541 0.63241,-2.0082 0.74861,-5.650581 0.249,-7.804981 -1.26811,-5.46835 -5.78944,-10.02545 -11.21572,-11.30443 -6.73416,-1.58725 -13.74441,1.68595 -16.83486,7.86048 -1.3675,2.73219 -1.7179,4.4703 -1.55909,7.733761 0.0956,1.9648 0.29524,3.0441 0.81266,4.39386 2.66699,6.95713 9.93016,10.92405 17.20481,9.39672 z"
     id="path136" />
  <g
     id="g2443">
    <path
       style="fill:#ff0000;stroke-width:2"
       d="m 131.07484,93.901571 c 5.29136,-1.11094 9.72076,-5.12338 11.3432,-10.27541 0.63241,-2.00819 0.74861,-5.65058 0.249,-7.80498 -1.26811,-5.46835 -5.78944,-10.02544 -11.21572,-11.30442 -6.73416,-1.58726 -13.74441,1.68594 -16.83486,7.86048 -1.3675,2.73218 -1.7179,4.4703 -1.55909,7.73375 0.0956,1.9648 0.29524,3.0441 0.81266,4.39386 2.66699,6.95713 9.93016,10.92405 17.20481,9.39672 z"
       id="path2336" />
    <path
       style="fill:#ff0000;stroke-width:2"
       d="m 137.14787,147.17167 c -0.0829,-0.5366 -1.1558,-11.21966 -2.38412,-23.74014 -1.22831,-12.52048 -2.28257,-22.99866 -2.3428,-23.28484 -0.10415,-0.494939 -0.31943,-0.520319 -4.41353,-0.520319 -2.36723,0 -4.30409,0 -4.30413,0 -5e-5,0 -0.64539,6.380559 -1.4341,14.179019 -2.80731,27.75784 -3.25756,32.14398 -3.41176,33.23619 l -0.15611,1.10571 H 128 h 9.29868 z"
       id="path2334" />
    <path
       style="fill:#000000;stroke-width:2"
       d="m 113.7517,141.62489 c 0.36035,-3.49569 1.46997,-14.4925 2.46582,-24.43734 0.99585,-9.94484 1.86288,-18.443109 1.92674,-18.885059 0.10894,-0.75398 -0.005,-0.88235 -1.84449,-2.08133 -7.52481,-4.90418 -10.88523,-14.81392 -7.97636,-23.52197 2.20795,-6.60978 7.81631,-11.84609 14.66628,-13.69335 2.36473,-0.6377 7.83101,-0.64855 10.14647,-0.0201 4.69317,1.27372 9.14574,4.32786 11.83791,8.11992 2.61556,3.68419 3.8084,7.34996 3.85191,11.83755 0.016,1.64555 -0.12392,3.69436 -0.31082,4.5529 -1.10013,5.05341 -4.26276,9.74706 -8.45225,12.54393 -1.01943,0.68056 -1.88937,1.25542 -1.93319,1.27745 -0.0438,0.022 0.39251,4.823769 0.96963,10.670529 0.57712,5.84677 1.6359,16.77689 2.35284,24.28919 0.71695,7.51228 1.39282,14.12323 1.50195,14.691 l 0.19841,1.0323 2.88859,-3.89412 c 6.49338,-8.75377 12.63367,-17.9283 20.10557,-30.0408 7.91586,-12.83221 9.78714,-18.045459 10.09868,-28.134349 0.23565,-7.63111 -0.49633,-12.05882 -3.11413,-18.83716 -5.67416,-14.69227 -17.83128,-25.327492 -33.49095,-29.298364 -9.17232,-2.32585 -18.15447,-1.914795 -27.41711,1.254696 -6.57992,2.251525 -12.475811,5.799448 -17.371881,10.453738 -9.04481,8.59816 -14.01608,19.02095 -15.02718,31.50604 -0.53457,6.60094 0.89364,15.10041 3.5816,21.314659 1.7462,4.037 7.26667,13.19636 15.82511,26.25645 4.883361,7.45196 13.557881,19.70723 13.786991,19.47812 0.0433,-0.0433 0.37351,-2.9388 0.73386,-6.4345 z"
       id="path2332" />
    <path
       style="fill:#ff0000;stroke-width:2"
       d="m 138.53284,161.48079 c -0.004,-0.25041 -0.17742,-2.09433 -0.38485,-4.09761 -0.20743,-2.00328 -0.37957,-3.673 -0.38255,-3.71049 -0.003,-0.0375 -4.42497,-0.0375 -9.82666,0 l -9.82127,0.0682 -0.29891,2.9919 c -0.16439,1.64556 -0.31074,3.48948 -0.3252,4.09762 l -0.0263,1.1057 h 10.53673 c 9.86445,0 10.53622,-0.029 10.52901,-0.45529 z"
       id="path2330" />
    <path
       style="fill:#ff0000;stroke-width:2"
       d="m 134.57435,175.07702 c 2.46937,-0.73333 3.9776,-2.85933 4.19624,-5.91508 l 0.1265,-1.76813 -10.89709,0.0679 -10.89709,0.0679 0.0703,1.17075 c 0.16437,2.73752 1.37419,4.91899 3.27242,5.9006 1.61769,0.83654 11.76362,1.17838 14.12873,0.47602 z"
       id="path2328" />
    <path
       style="fill:#ff0000;stroke-width:2"
       d="m 136.23635,211.36761 c 2.87838,-4.5102 5.1985,-9.15611 6.17141,-12.35789 0.62978,-2.07254 0.7133,-2.77478 0.72718,-6.11389 0.0148,-3.56093 -0.025,-3.86873 -0.70924,-5.4906 -0.84345,-1.99918 -2.90092,-4.44088 -4.37629,-5.19356 -1.647,-0.84024 -3.08485,-0.98018 -10.89294,-1.06022 l -7.41472,-0.076 -1.37586,0.75365 c -2.42537,1.32854 -4.36863,3.89824 -5.11476,6.7636 -0.52133,2.00206 -0.51713,5.85597 0.009,8.4117 0.89482,4.34524 2.8267,8.35475 8.04869,16.70469 1.74503,2.79028 3.9652,6.44809 4.93373,8.12847 l 1.76096,3.05524 2.91257,-4.8764 c 1.60192,-2.68202 3.99596,-6.57398 5.32009,-8.6488 z"
       id="path2326" />
  </g>
  <path
     style="fill:none;stroke:#000000;stroke-width:2"
     d="m 126.44135,232.78317 c -0.8248,-0.71114 -14.27614,-23.01086 -15.81108,-26.21171 -2.70281,-5.63621 -3.6234,-9.65125 -3.42997,-14.95954 0.1,-2.74406 0.24001,-3.60231 0.8964,-5.49412 1.16479,-3.35709 3.4879,-6.57634 6.01551,-8.33599 l 0.599,-0.41701 -1.05942,-1.51236 c -2.18572,-3.12023 -2.56013,-6.24304 -1.82923,-15.25694 l 0.33157,-4.08924 -3.11487,-4.10599 C 97.365451,137.012 83.537281,115.62919 78.634221,105.38428 c -2.86339,-5.983056 -4.02088,-10.418186 -4.56605,-17.495736 -0.72624,-9.428146 1.57145,-20.105856 6.17188,-28.681586 8.37166,-15.605727 23.326889,-25.848761 41.078139,-28.134958 3.51712,-0.452967 10.92193,-0.381254 14.30913,0.138588 6.3509,0.974689 11.99319,2.774513 17.50131,5.58273 9.25187,4.716883 17.2076,12.430813 22.29118,21.61368 4.49936,8.12754 6.63968,16.53162 6.64498,26.091876 0.006,10.88333 -1.79843,16.859226 -8.67762,28.737826 -7.15217,12.34997 -19.65435,30.80385 -27.95884,41.26871 l -1.41912,1.78829 0.29955,4.45569 c 0.67217,9.99829 0.24001,12.96194 -2.31437,15.87121 l -0.78429,0.89326 0.91001,0.56242 c 2.68746,1.66095 5.73352,6.56019 6.50819,10.46772 1.27129,6.41249 -0.47578,13.86411 -5.14159,21.92995 -3.15229,5.44938 -13.31448,21.91986 -13.76468,22.30922 -0.32448,0.28064 -0.95341,0.45529 -1.63952,0.45529 -0.68549,0 -1.31596,-0.17491 -1.64116,-0.45529 z"
     id="path136-1" />
</svg>
